<svg width="792" height="372" viewBox="0 0 792 372" fill="none" xmlns="http://www.w3.org/2000/svg">
<g clip-path="url(#clip0_1551_242)">
<path d="M8.03969 29.4797H5.35969V32.1597H2.67969V34.8397L5.35969 37.5197H8.03969V34.8397H10.7197V32.1597H13.3997V29.4797H16.0797V26.7997H18.7597V24.1197H21.4397V21.4397H24.1197V18.7597H26.7997V16.0797H29.4797V13.3997L26.7997 10.7197H24.1197V13.3997H21.4397V16.0797H18.7597V18.7597H16.0797V21.4397H13.3997V24.1197H10.7197V26.7997H8.03969V29.4797Z" fill="#00001F"/>
<path d="M754.442 358.6H751.762V361.28H749.082V363.96L751.762 366.64H754.442V363.96H757.122V361.28H759.802V358.6H762.482V355.92H765.162V353.24H767.842V350.56H770.522V347.88H773.202V345.2H775.882V342.52L773.202 339.84H770.522V342.52H767.842V345.2H765.162V347.88H762.482V350.56H759.802V353.24H757.122V355.92H754.442V358.6Z" fill="#00001F"/>
<path d="M26.8008 4.01969H25.4608V5.35969V16.0797V17.4197H26.8008H28.1408V18.7597V20.0997H29.4808H1924.24H1925.58V18.7597V2.67969V1.33969H1924.24H29.4808H28.1408V2.67969V4.01969H26.8008Z" fill="#FFF0D5" stroke="#00001F" stroke-width="2.68"/>
<path d="M773.2 339.84H770.52V342.52H767.84V345.2L770.52 347.88H773.2V345.2H775.88V342.52H778.56V339.84H781.24V337.16H783.92V334.48H786.6V331.8H789.28V329.12H791.96V326.44H794.64V323.76L791.96 321.08H789.28V323.76H786.6V326.44H783.92V329.12H781.24V331.8H778.56V334.48H775.88V337.16H773.2V339.84Z" fill="#00001F"/>
<line x1="4.01578" y1="29.4795" x2="4.01578" y2="1088.08" stroke="#FFF0D5" stroke-width="2.68"/>
<line x1="787.934" y1="-724.12" x2="787.934" y2="334.48" stroke="#FFF0D5" stroke-width="2.68"/>
<line x1="-304.164" y1="367.98" x2="754.436" y2="367.98" stroke="#FFF0D5" stroke-width="2.68"/>
<path d="M26.7969 5.35969H29.4769V16.0797H26.7969V5.35969Z" fill="#FFF0D5"/>
<path d="M29.4769 2.67969H1924.24V18.7597H29.4769V2.67969Z" fill="#FFF0D5"/>
<rect x="32.1562" y="5.35938" width="5.36" height="5.36" fill="#00001F"/>
<rect x="781.234" y="5.35938" width="5.36" height="5.36" fill="#00001F"/>
<line x1="790.617" y1="-724.12" x2="790.617" y2="334.48" stroke="#00001F" stroke-width="2.68"/>
<line x1="-905.844" y1="370.66" x2="184.916" y2="370.66" stroke="#00001F" stroke-width="2.68"/>
<line x1="1.33609" y1="29.4805" x2="1.33609" y2="1088.08" stroke="#00001F" stroke-width="2.68"/>
<path d="M789.279 323.76H791.959V326.44H789.279V323.76Z" fill="#4BF89B"/>
<path d="M786.599 326.44H789.279V329.12H786.599V326.44Z" fill="#4BF89B"/>
<path d="M783.919 329.12H786.599V331.8H783.919V329.12Z" fill="#4BF89B"/>
<path d="M781.239 331.8H783.919V334.48H781.239V331.8Z" fill="#4BF89B"/>
<path d="M778.559 334.48H781.239V337.16H778.559V334.48Z" fill="#4BF89B"/>
<path d="M775.879 337.16H778.559V339.84H775.879V337.16Z" fill="#4BF89B"/>
<path d="M773.199 339.84H775.879V342.52H773.199V339.84Z" fill="#4BF89B"/>
<path d="M770.519 342.52H773.199V345.2H770.519V342.52Z" fill="#4BF89B"/>
<path d="M767.839 345.2H770.519V347.88H767.839V345.2Z" fill="#4BF89B"/>
<path d="M765.159 347.88H767.839V350.56H765.159V347.88Z" fill="#4BF89B"/>
<path d="M762.479 350.56H765.159V353.24H762.479V350.56Z" fill="#4BF89B"/>
<path d="M759.799 353.24H762.479V355.92H759.799V353.24Z" fill="#4BF89B"/>
<path d="M757.119 355.92H759.799V358.6H757.119V355.92Z" fill="#4BF89B"/>
<path d="M754.439 358.6H757.119V361.28H754.439V358.6Z" fill="#4BF89B"/>
<path d="M751.759 361.28H754.439V363.96H751.759V361.28Z" fill="#4BF89B"/>
<path d="M749.079 363.96H751.759V366.64H749.079V363.96Z" fill="#4BF89B"/>
<path d="M746.399 366.64H749.079V369.32H746.399V366.64Z" fill="#4BF89B"/>
<path d="M743.719 369.32H746.399V372H743.719V369.32Z" fill="#4BF89B"/>
<path d="M29.48 8.04035H32.16V10.7204H29.48V8.04035Z" fill="#4BF89B"/>
<path d="M32.16 5.36035H34.84V8.04035H32.16V5.36035Z" fill="#4BF89B"/>
<path d="M26.8 10.7204H29.48V13.4004H26.8V10.7204Z" fill="#4BF89B"/>
<path d="M24.12 13.4004H26.8V16.0804H24.12V13.4004Z" fill="#4BF89B"/>
<path d="M21.44 16.0804H24.12V18.7604H21.44V16.0804Z" fill="#4BF89B"/>
<path d="M18.76 18.7604H21.44V21.4404H18.76V18.7604Z" fill="#4BF89B"/>
<path d="M16.08 21.4404H18.76V24.1204H16.08V21.4404Z" fill="#4BF89B"/>
<path d="M13.4 24.1204H16.08V26.8004H13.4V24.1204Z" fill="#4BF89B"/>
<path d="M10.72 26.8004H13.4V29.4804H10.72V26.8004Z" fill="#4BF89B"/>
<path d="M8.04 29.4804H10.72V32.1604H8.04V29.4804Z" fill="#4BF89B"/>
<path d="M5.36 32.1604H8.04V34.8404H5.36V32.1604Z" fill="#4BF89B"/>
<path d="M2.68 34.8404H5.36V37.5204H2.68V34.8404Z" fill="#4BF89B"/>
<path d="M0 37.5204H2.68V40.2004H0V37.5204Z" fill="#4BF89B"/>
<path d="M786.602 2.68V0H791.962V5.36H789.282V2.68H786.602Z" fill="#00001F"/>
</g>
<defs>
<clipPath id="clip0_1551_242">
<rect width="792" height="372" fill="white"/>
</clipPath>
</defs>
</svg>
