<svg width="137" height="48" viewBox="0 0 137 48" fill="none" xmlns="http://www.w3.org/2000/svg">
<g clip-path="url(#clip0_2982_148)">
<path d="M6 1H7V0H415V2H6V1Z" fill="#FFEBD3"/>
<path d="M131 47L130 47L130 48L-278 48L-278 46L131 46L131 47Z" fill="#FFEBD3"/>
<path d="M136 42L136 41L137 41L137 -367L135 -367L135 42L136 42Z" fill="#FFEBD3"/>
<path d="M1 6L1 7L-4.37114e-08 7L-1.7878e-05 415L1.99998 415L2 6L1 6Z" fill="#FFEBD3"/>
<path d="M131 45H132V46H131V45Z" fill="#4BF89B"/>
<path d="M132 44H133V45H132V44Z" fill="#4BF89B"/>
<path d="M133 43H134V44H133V43Z" fill="#4BF89B"/>
<path d="M134 42H135V43H134V42Z" fill="#4BF89B"/>
<path d="M2 5H3V6H2V5Z" fill="#4BF89B"/>
<path d="M3 4H4V5H3V4Z" fill="#4BF89B"/>
<path d="M4 3H5V4H4V3Z" fill="#4BF89B"/>
<path d="M5 2H6V3H5V2Z" fill="#4BF89B"/>
<path d="M16.0147 29V28.2422V27.4766V26.7188V25.9531V25.1953V24.4297V23.6719V22.9062V22.1484V21.3828V20.625V19.8594V19.1016V18.3359H16.7725H17.5381V19.1016V19.8594V20.625V21.3828V22.1484V22.9062V23.6719V24.4297V25.1953V25.9531V26.7188V27.4766H18.2959H19.0616H19.8194H20.585H21.3428H22.1084H22.8662H23.6319V28.2422V29H22.8662H22.1084H21.3428H20.585H19.8194H19.0616H18.2959H17.5381H16.7725H16.0147ZM25.6697 27.4766V26.7188V25.9531V25.1953V24.4297V23.6719V22.9062H26.4275V22.1484H27.1931V21.3828H27.9509H28.7166H29.4744H30.24H30.9978H31.7634V22.1484H32.5212V22.9062H33.2869V23.6719V24.4297V25.1953V25.9531H32.5212H31.7634H30.9978H30.24H29.4744H28.7166H27.9509H27.1931V26.7188H27.9509V27.4766H28.7166H29.4744H30.24H30.9978H31.7634V26.7188H32.5212H33.2869V27.4766V28.2422H32.5212V29H31.7634H30.9978H30.24H29.4744H28.7166H27.9509H27.1931V28.2422H26.4275V27.4766H25.6697ZM27.1931 24.4297H27.9509H28.7166H29.4744H30.24H30.9978H31.7634V23.6719H30.9978V22.9062H30.24H29.4744H28.7166H27.9509V23.6719H27.1931V24.4297ZM35.3247 25.9531V25.1953V24.4297V23.6719V22.9062V22.1484V21.3828H36.0825H36.8481V22.1484V22.9062V23.6719V24.4297V25.1953H37.6059V25.9531H38.3716V26.7188H39.1294H39.895V25.9531H40.6528V25.1953H41.4184V24.4297V23.6719V22.9062V22.1484V21.3828H42.1762H42.9419V22.1484V22.9062V23.6719V24.4297V25.1953V25.9531H42.1762V26.7188H41.4184V27.4766H40.6528V28.2422H39.895V29H39.1294H38.3716V28.2422H37.6059V27.4766H36.8481V26.7188H36.0825V25.9531H35.3247ZM44.9797 27.4766V26.7188V25.9531V25.1953V24.4297V23.6719V22.9062H45.7375V22.1484H46.5031V21.3828H47.2609H48.0266H48.7844H49.55H50.3078H51.0734V22.1484H51.8312V22.9062H52.5969V23.6719V24.4297V25.1953V25.9531H51.8312H51.0734H50.3078H49.55H48.7844H48.0266H47.2609H46.5031V26.7188H47.2609V27.4766H48.0266H48.7844H49.55H50.3078H51.0734V26.7188H51.8312H52.5969V27.4766V28.2422H51.8312V29H51.0734H50.3078H49.55H48.7844H48.0266H47.2609H46.5031V28.2422H45.7375V27.4766H44.9797ZM46.5031 24.4297H47.2609H48.0266H48.7844H49.55H50.3078H51.0734V23.6719H50.3078V22.9062H49.55H48.7844H48.0266H47.2609V23.6719H46.5031V24.4297ZM54.6347 19.8594V19.1016V18.3359H55.3925H56.1581H56.9159V19.1016V19.8594V20.625V21.3828V22.1484V22.9062V23.6719V24.4297V25.1953V25.9531V26.7188V27.4766H57.6816V28.2422V29H56.9159H56.1581H55.3925V28.2422V27.4766V26.7188V25.9531V25.1953V24.4297V23.6719V22.9062V22.1484V21.3828V20.625V19.8594H54.6347ZM60.485 24.4297V23.6719V22.9062H61.2506H62.0084H62.7741H63.5319H64.2975V23.6719V24.4297H63.5319H62.7741H62.0084H61.2506H60.485ZM66.3353 29V28.2422V27.4766V26.7188V25.9531V25.1953V24.4297V23.6719V22.9062V22.1484V21.3828V20.625V19.8594V19.1016V18.3359H67.0931H67.8587V19.1016V19.8594V20.625V21.3828V22.1484H68.6166V21.3828H69.3822H70.14H70.9056H71.6634H72.4291V22.1484H73.1869V22.9062H73.9525V23.6719V24.4297V25.1953V25.9531V26.7188V27.4766V28.2422V29H73.1869H72.4291V28.2422V27.4766V26.7188V25.9531V25.1953V24.4297V23.6719H71.6634V22.9062H70.9056H70.14H69.3822H68.6166V23.6719H67.8587V24.4297V25.1953V25.9531V26.7188V27.4766V28.2422V29H67.0931H66.3353ZM75.9903 27.4766V26.7188V25.9531V25.1953V24.4297V23.6719V22.9062H76.7481V22.1484H77.5137V21.3828H78.2716H79.0372H79.795H80.5606H81.3184H82.0841V22.1484H82.8419V22.9062H83.6075V23.6719V24.4297V25.1953V25.9531H82.8419H82.0841H81.3184H80.5606H79.795H79.0372H78.2716H77.5137V26.7188H78.2716V27.4766H79.0372H79.795H80.5606H81.3184H82.0841V26.7188H82.8419H83.6075V27.4766V28.2422H82.8419V29H82.0841H81.3184H80.5606H79.795H79.0372H78.2716H77.5137V28.2422H76.7481V27.4766H75.9903ZM77.5137 24.4297H78.2716H79.0372H79.795H80.5606H81.3184H82.0841V23.6719H81.3184V22.9062H80.5606H79.795H79.0372H78.2716V23.6719H77.5137V24.4297ZM85.6453 27.4766V26.7188V25.9531H86.4031V25.1953H87.1687V24.4297H87.9266H88.6922H89.45H90.2156H90.9734H91.7391V23.6719H90.9734V22.9062H90.2156H89.45H88.6922H87.9266H87.1687H86.4031V22.1484V21.3828H87.1687H87.9266H88.6922H89.45H90.2156H90.9734H91.7391V22.1484H92.4969V22.9062H93.2625V23.6719V24.4297V25.1953V25.9531V26.7188V27.4766V28.2422V29H92.4969H91.7391V28.2422H90.9734V29H90.2156H89.45H88.6922H87.9266H87.1687V28.2422H86.4031V27.4766H85.6453ZM87.9266 27.4766H88.6922H89.45H90.2156H90.9734V26.7188H91.7391V25.9531H90.9734H90.2156H89.45H88.6922H87.9266V26.7188V27.4766ZM95.3003 27.4766V26.7188V25.9531V25.1953V24.4297V23.6719V22.9062H96.0581V22.1484H96.8237V21.3828H97.5816H98.3472H99.105H99.8706H100.628V22.1484H101.394V21.3828V20.625V19.8594V19.1016V18.3359H102.152H102.917V19.1016V19.8594V20.625V21.3828V22.1484V22.9062V23.6719V24.4297V25.1953V25.9531V26.7188V27.4766V28.2422V29H102.152H101.394H100.628H99.8706H99.105H98.3472H97.5816H96.8237V28.2422H96.0581V27.4766H95.3003ZM96.8237 26.7188H97.5816V27.4766H98.3472H99.105H99.8706H100.628H101.394V26.7188V25.9531V25.1953V24.4297V23.6719H100.628V22.9062H99.8706H99.105H98.3472H97.5816V23.6719H96.8237V24.4297V25.1953V25.9531V26.7188ZM104.955 27.4766V26.7188V25.9531V25.1953V24.4297V23.6719V22.9062H105.713V22.1484H106.479V21.3828H107.237H108.002H108.76H109.526H110.283H111.049V22.1484H111.807V22.9062H112.573V23.6719V24.4297V25.1953V25.9531H111.807H111.049H110.283H109.526H108.76H108.002H107.237H106.479V26.7188H107.237V27.4766H108.002H108.76H109.526H110.283H111.049V26.7188H111.807H112.573V27.4766V28.2422H111.807V29H111.049H110.283H109.526H108.76H108.002H107.237H106.479V28.2422H105.713V27.4766H104.955ZM106.479 24.4297H107.237H108.002H108.76H109.526H110.283H111.049V23.6719H110.283V22.9062H109.526H108.76H108.002H107.237V23.6719H106.479V24.4297ZM114.61 27.4766V26.7188V25.9531V25.1953V24.4297V23.6719V22.9062H115.368V22.1484H116.134V21.3828H116.892H117.657H118.415H119.181H119.938V22.1484H120.704V21.3828V20.625V19.8594V19.1016V18.3359H121.462H122.228V19.1016V19.8594V20.625V21.3828V22.1484V22.9062V23.6719V24.4297V25.1953V25.9531V26.7188V27.4766V28.2422V29H121.462H120.704H119.938H119.181H118.415H117.657H116.892H116.134V28.2422H115.368V27.4766H114.61ZM116.134 26.7188H116.892V27.4766H117.657H118.415H119.181H119.938H120.704V26.7188V25.9531V25.1953V24.4297V23.6719H119.938V22.9062H119.181H118.415H117.657H116.892V23.6719H116.134V24.4297V25.1953V25.9531V26.7188Z" fill="#FFEBD3"/>
</g>
<defs>
<clipPath id="clip0_2982_148">
<rect width="137" height="48" fill="white"/>
</clipPath>
</defs>
</svg>
