<svg width="150" height="48" viewBox="0 0 150 48" fill="none" xmlns="http://www.w3.org/2000/svg">
<g clip-path="url(#clip0_1837_30212)">
<path d="M6 1H7V0H415V2H6V1Z" fill="#FFEBD3"/>
<path d="M144 47L143 47L143 48L-265 48L-265 46L144 46L144 47Z" fill="#FFEBD3"/>
<path d="M149 42L149 41L150 41L150 -367L148 -367L148 42L149 42Z" fill="#FFEBD3"/>
<path d="M1 6L1 7L-4.37114e-08 7L-1.7878e-05 415L1.99998 415L2 6L1 6Z" fill="#FFEBD3"/>
<path d="M144 45H145V46H144V45Z" fill="#4BF89B"/>
<path d="M145 44H146V45H145V44Z" fill="#4BF89B"/>
<path d="M146 43H147V44H146V43Z" fill="#4BF89B"/>
<path d="M147 42H148V43H147V42Z" fill="#4BF89B"/>
<path d="M2 5H3V6H2V5Z" fill="#4BF89B"/>
<path d="M3 4H4V5H3V4Z" fill="#4BF89B"/>
<path d="M4 3H5V4H4V3Z" fill="#4BF89B"/>
<path d="M5 2H6V3H5V2Z" fill="#4BF89B"/>
<path d="M43.1561 29V28.2422V27.4766V26.7188V25.9531V25.1953V24.4297V23.6719V22.9062V22.1484V21.3828V20.625V19.8594V19.1016V18.3359H43.9139H44.6795H45.4373V19.1016V19.8594H46.203V20.625V21.3828H46.9608V22.1484V22.9062H47.7264H48.4842V22.1484V21.3828H49.2498V20.625V19.8594H50.0077V19.1016V18.3359H50.7733H51.5311H52.2967V19.1016V19.8594V20.625V21.3828V22.1484V22.9062V23.6719V24.4297V25.1953V25.9531V26.7188V27.4766V28.2422V29H51.5311H50.7733V28.2422V27.4766V26.7188V25.9531V25.1953V24.4297V23.6719V22.9062V22.1484V21.3828H50.0077V22.1484V22.9062H49.2498V23.6719V24.4297H48.4842V25.1953V25.9531H47.7264H46.9608V25.1953V24.4297H46.203V23.6719V22.9062H45.4373V22.1484V21.3828H44.6795V22.1484V22.9062V23.6719V24.4297V25.1953V25.9531V26.7188V27.4766V28.2422V29H43.9139H43.1561ZM54.3423 27.4766V26.7188V25.9531V25.1953V24.4297V23.6719V22.9062H55.1002V22.1484H55.8658V21.3828H56.6236H57.3892H58.147H58.9127H59.6705H60.4361V22.1484H61.1939V22.9062H61.9595V23.6719V24.4297V25.1953V25.9531H61.1939H60.4361H59.6705H58.9127H58.147H57.3892H56.6236H55.8658V26.7188H56.6236V27.4766H57.3892H58.147H58.9127H59.6705H60.4361V26.7188H61.1939H61.9595V27.4766V28.2422H61.1939V29H60.4361H59.6705H58.9127H58.147H57.3892H56.6236H55.8658V28.2422H55.1002V27.4766H54.3423ZM55.8658 24.4297H56.6236H57.3892H58.147H58.9127H59.6705H60.4361V23.6719H59.6705V22.9062H58.9127H58.147H57.3892H56.6236V23.6719H55.8658V24.4297ZM63.9973 29V28.2422V27.4766V26.7188V25.9531V25.1953V24.4297V23.6719V22.9062V22.1484V21.3828H64.7552H65.5208V22.1484H66.2786V21.3828H67.0442H67.802H68.5677V22.1484H69.3255V22.9062V23.6719H68.5677H67.802V22.9062H67.0442H66.2786V23.6719H65.5208V24.4297V25.1953V25.9531V26.7188V27.4766V28.2422V29H64.7552H63.9973ZM71.3711 27.4766V26.7188V25.9531V25.1953V24.4297V23.6719V22.9062H72.1289V22.1484H72.8945V21.3828H73.6523H74.418H75.1758H75.9414H76.6992H77.4648V22.1484H78.2227V22.9062V23.6719H77.4648H76.6992V22.9062H75.9414H75.1758H74.418H73.6523V23.6719H72.8945V24.4297V25.1953V25.9531V26.7188H73.6523V27.4766H74.418H75.1758H75.9414H76.6992V26.7188V25.9531H77.4648H78.2227V26.7188V27.4766V28.2422H77.4648V29H76.6992H75.9414H75.1758H74.418H73.6523H72.8945V28.2422H72.1289V27.4766H71.3711ZM80.2761 29V28.2422V27.4766V26.7188V25.9531V25.1953V24.4297V23.6719V22.9062V22.1484V21.3828V20.625V19.8594V19.1016V18.3359H81.0339H81.7995V19.1016V19.8594V20.625V21.3828V22.1484H82.5573V21.3828H83.323H84.0808H84.8464H85.6042H86.3698V22.1484H87.1277V22.9062H87.8933V23.6719V24.4297V25.1953V25.9531V26.7188V27.4766V28.2422V29H87.1277H86.3698V28.2422V27.4766V26.7188V25.9531V25.1953V24.4297V23.6719H85.6042V22.9062H84.8464H84.0808H83.323H82.5573V23.6719H81.7995V24.4297V25.1953V25.9531V26.7188V27.4766V28.2422V29H81.0339H80.2761ZM97.3048 29V28.2422V27.4766H98.0627V26.7188H98.8283V25.9531H99.5861V25.1953H100.352V24.4297H101.11V23.6719H101.875V22.9062H102.633V22.1484H103.399V21.3828V20.625H102.633V19.8594H101.875H101.11H100.352H99.5861V20.625H98.8283V21.3828H98.0627H97.3048V20.625V19.8594H98.0627V19.1016H98.8283V18.3359H99.5861H100.352H101.11H101.875H102.633H103.399V19.1016H104.156V19.8594H104.922V20.625V21.3828V22.1484V22.9062H104.156V23.6719H103.399V24.4297H102.633V25.1953H101.875V25.9531H101.11V26.7188H100.352V27.4766H101.11H101.875H102.633H103.399H104.156H104.922V28.2422V29H104.156H103.399H102.633H101.875H101.11H100.352H99.5861H98.8283H98.0627H97.3048Z" fill="#FFEBD3"/>
</g>
<defs>
<clipPath id="clip0_1837_30212">
<rect width="150" height="48" fill="white"/>
</clipPath>
</defs>
</svg>
