<svg width="150" height="48" viewBox="0 0 150 48" fill="none" xmlns="http://www.w3.org/2000/svg">
<g clip-path="url(#clip0_1837_30220)">
<path d="M6 1H7V0H415V2H6V1Z" fill="#FFEBD3"/>
<path d="M144 47L143 47L143 48L-265 48L-265 46L144 46L144 47Z" fill="#FFEBD3"/>
<path d="M149 42L149 41L150 41L150 -367L148 -367L148 42L149 42Z" fill="#FFEBD3"/>
<path d="M1 6L1 7L-4.37114e-08 7L-1.7878e-05 415L1.99998 415L2 6L1 6Z" fill="#FFEBD3"/>
<path d="M144 45H145V46H144V45Z" fill="#4BF89B"/>
<path d="M145 44H146V45H145V44Z" fill="#4BF89B"/>
<path d="M146 43H147V44H146V43Z" fill="#4BF89B"/>
<path d="M147 42H148V43H147V42Z" fill="#4BF89B"/>
<path d="M2 5H3V6H2V5Z" fill="#4BF89B"/>
<path d="M3 4H4V5H3V4Z" fill="#4BF89B"/>
<path d="M4 3H5V4H4V3Z" fill="#4BF89B"/>
<path d="M5 2H6V3H5V2Z" fill="#4BF89B"/>
<path d="M42.9569 29V28.2422V27.4766V26.7188V25.9531V25.1953V24.4297V23.6719V22.9062V22.1484V21.3828V20.625V19.8594V19.1016V18.3359H43.7147H44.4803H45.2381V19.1016V19.8594H46.0037V20.625V21.3828H46.7616V22.1484V22.9062H47.5272H48.285V22.1484V21.3828H49.0506V20.625V19.8594H49.8084V19.1016V18.3359H50.5741H51.3319H52.0975V19.1016V19.8594V20.625V21.3828V22.1484V22.9062V23.6719V24.4297V25.1953V25.9531V26.7188V27.4766V28.2422V29H51.3319H50.5741V28.2422V27.4766V26.7188V25.9531V25.1953V24.4297V23.6719V22.9062V22.1484V21.3828H49.8084V22.1484V22.9062H49.0506V23.6719V24.4297H48.285V25.1953V25.9531H47.5272H46.7616V25.1953V24.4297H46.0037V23.6719V22.9062H45.2381V22.1484V21.3828H44.4803V22.1484V22.9062V23.6719V24.4297V25.1953V25.9531V26.7188V27.4766V28.2422V29H43.7147H42.9569ZM54.1431 27.4766V26.7188V25.9531V25.1953V24.4297V23.6719V22.9062H54.9009V22.1484H55.6666V21.3828H56.4244H57.19H57.9478H58.7134H59.4712H60.2369V22.1484H60.9947V22.9062H61.7603V23.6719V24.4297V25.1953V25.9531H60.9947H60.2369H59.4712H58.7134H57.9478H57.19H56.4244H55.6666V26.7188H56.4244V27.4766H57.19H57.9478H58.7134H59.4712H60.2369V26.7188H60.9947H61.7603V27.4766V28.2422H60.9947V29H60.2369H59.4712H58.7134H57.9478H57.19H56.4244H55.6666V28.2422H54.9009V27.4766H54.1431ZM55.6666 24.4297H56.4244H57.19H57.9478H58.7134H59.4712H60.2369V23.6719H59.4712V22.9062H58.7134H57.9478H57.19H56.4244V23.6719H55.6666V24.4297ZM63.7981 29V28.2422V27.4766V26.7188V25.9531V25.1953V24.4297V23.6719V22.9062V22.1484V21.3828H64.5559H65.3216V22.1484H66.0794V21.3828H66.845H67.6028H68.3684V22.1484H69.1262V22.9062V23.6719H68.3684H67.6028V22.9062H66.845H66.0794V23.6719H65.3216V24.4297V25.1953V25.9531V26.7188V27.4766V28.2422V29H64.5559H63.7981ZM71.1719 27.4766V26.7188V25.9531V25.1953V24.4297V23.6719V22.9062H71.9297V22.1484H72.6953V21.3828H73.4531H74.2188H74.9766H75.7422H76.5H77.2656V22.1484H78.0234V22.9062V23.6719H77.2656H76.5V22.9062H75.7422H74.9766H74.2188H73.4531V23.6719H72.6953V24.4297V25.1953V25.9531V26.7188H73.4531V27.4766H74.2188H74.9766H75.7422H76.5V26.7188V25.9531H77.2656H78.0234V26.7188V27.4766V28.2422H77.2656V29H76.5H75.7422H74.9766H74.2188H73.4531H72.6953V28.2422H71.9297V27.4766H71.1719ZM80.0769 29V28.2422V27.4766V26.7188V25.9531V25.1953V24.4297V23.6719V22.9062V22.1484V21.3828V20.625V19.8594V19.1016V18.3359H80.8347H81.6003V19.1016V19.8594V20.625V21.3828V22.1484H82.3581V21.3828H83.1237H83.8816H84.6472H85.405H86.1706V22.1484H86.9284V22.9062H87.6941V23.6719V24.4297V25.1953V25.9531V26.7188V27.4766V28.2422V29H86.9284H86.1706V28.2422V27.4766V26.7188V25.9531V25.1953V24.4297V23.6719H85.405V22.9062H84.6472H83.8816H83.1237H82.3581V23.6719H81.6003V24.4297V25.1953V25.9531V26.7188V27.4766V28.2422V29H80.8347H80.0769ZM97.1056 27.4766V26.7188V25.9531H97.8634H98.6291V26.7188H99.3869V27.4766H100.153H100.91H101.676H102.434V26.7188H103.199V25.9531V25.1953H102.434V24.4297H101.676H100.91H100.153V23.6719V22.9062H100.91H101.676H102.434V22.1484H103.199V21.3828V20.625H102.434V19.8594H101.676H100.91H100.153H99.3869V20.625H98.6291V21.3828H97.8634H97.1056V20.625V19.8594H97.8634V19.1016H98.6291V18.3359H99.3869H100.153H100.91H101.676H102.434H103.199V19.1016H103.957V19.8594H104.723V20.625V21.3828V22.1484V22.9062H103.957V23.6719V24.4297H104.723V25.1953V25.9531V26.7188V27.4766H103.957V28.2422H103.199V29H102.434H101.676H100.91H100.153H99.3869H98.6291V28.2422H97.8634V27.4766H97.1056Z" fill="#FFEBD3"/>
</g>
<defs>
<clipPath id="clip0_1837_30220">
<rect width="150" height="48" fill="white"/>
</clipPath>
</defs>
</svg>
