<svg width="150" height="48" viewBox="0 0 150 48" fill="none" xmlns="http://www.w3.org/2000/svg">
<g clip-path="url(#clip0_1837_30203)">
<path d="M6 1H7V0H415V2H6V1Z" fill="#FFEBD3"/>
<path d="M144 47L143 47L143 48L-265 48L-265 46L144 46L144 47Z" fill="#FFEBD3"/>
<path d="M149 42L149 41L150 41L150 -367L148 -367L148 42L149 42Z" fill="#FFEBD3"/>
<path d="M1 6L1 7L-4.37114e-08 7L-1.7878e-05 415L1.99998 415L2 6L1 6Z" fill="#FFEBD3"/>
<path d="M144 45H145V46H144V45Z" fill="#4BF89B"/>
<path d="M145 44H146V45H145V44Z" fill="#4BF89B"/>
<path d="M146 43H147V44H146V43Z" fill="#4BF89B"/>
<path d="M147 42H148V43H147V42Z" fill="#4BF89B"/>
<path d="M2 5H3V6H2V5Z" fill="#4BF89B"/>
<path d="M3 4H4V5H3V4Z" fill="#4BF89B"/>
<path d="M4 3H5V4H4V3Z" fill="#4BF89B"/>
<path d="M5 2H6V3H5V2Z" fill="#4BF89B"/>
<path d="M44.1131 29V28.2422V27.4766V26.7188V25.9531V25.1953V24.4297V23.6719V22.9062V22.1484V21.3828V20.625V19.8594V19.1016V18.3359H44.8709H45.6366H46.3944V19.1016V19.8594H47.16V20.625V21.3828H47.9178V22.1484V22.9062H48.6834H49.4412V22.1484V21.3828H50.2069V20.625V19.8594H50.9647V19.1016V18.3359H51.7303H52.4881H53.2537V19.1016V19.8594V20.625V21.3828V22.1484V22.9062V23.6719V24.4297V25.1953V25.9531V26.7188V27.4766V28.2422V29H52.4881H51.7303V28.2422V27.4766V26.7188V25.9531V25.1953V24.4297V23.6719V22.9062V22.1484V21.3828H50.9647V22.1484V22.9062H50.2069V23.6719V24.4297H49.4412V25.1953V25.9531H48.6834H47.9178V25.1953V24.4297H47.16V23.6719V22.9062H46.3944V22.1484V21.3828H45.6366V22.1484V22.9062V23.6719V24.4297V25.1953V25.9531V26.7188V27.4766V28.2422V29H44.8709H44.1131ZM55.2994 27.4766V26.7188V25.9531V25.1953V24.4297V23.6719V22.9062H56.0572V22.1484H56.8228V21.3828H57.5806H58.3462H59.1041H59.8697H60.6275H61.3931V22.1484H62.1509V22.9062H62.9166V23.6719V24.4297V25.1953V25.9531H62.1509H61.3931H60.6275H59.8697H59.1041H58.3462H57.5806H56.8228V26.7188H57.5806V27.4766H58.3462H59.1041H59.8697H60.6275H61.3931V26.7188H62.1509H62.9166V27.4766V28.2422H62.1509V29H61.3931H60.6275H59.8697H59.1041H58.3462H57.5806H56.8228V28.2422H56.0572V27.4766H55.2994ZM56.8228 24.4297H57.5806H58.3462H59.1041H59.8697H60.6275H61.3931V23.6719H60.6275V22.9062H59.8697H59.1041H58.3462H57.5806V23.6719H56.8228V24.4297ZM64.9544 29V28.2422V27.4766V26.7188V25.9531V25.1953V24.4297V23.6719V22.9062V22.1484V21.3828H65.7122H66.4778V22.1484H67.2356V21.3828H68.0012H68.7591H69.5247V22.1484H70.2825V22.9062V23.6719H69.5247H68.7591V22.9062H68.0012H67.2356V23.6719H66.4778V24.4297V25.1953V25.9531V26.7188V27.4766V28.2422V29H65.7122H64.9544ZM72.3281 27.4766V26.7188V25.9531V25.1953V24.4297V23.6719V22.9062H73.0859V22.1484H73.8516V21.3828H74.6094H75.375H76.1328H76.8984H77.6562H78.4219V22.1484H79.1797V22.9062V23.6719H78.4219H77.6562V22.9062H76.8984H76.1328H75.375H74.6094V23.6719H73.8516V24.4297V25.1953V25.9531V26.7188H74.6094V27.4766H75.375H76.1328H76.8984H77.6562V26.7188V25.9531H78.4219H79.1797V26.7188V27.4766V28.2422H78.4219V29H77.6562H76.8984H76.1328H75.375H74.6094H73.8516V28.2422H73.0859V27.4766H72.3281ZM81.2331 29V28.2422V27.4766V26.7188V25.9531V25.1953V24.4297V23.6719V22.9062V22.1484V21.3828V20.625V19.8594V19.1016V18.3359H81.9909H82.7566V19.1016V19.8594V20.625V21.3828V22.1484H83.5144V21.3828H84.28H85.0378H85.8034H86.5612H87.3269V22.1484H88.0847V22.9062H88.8503V23.6719V24.4297V25.1953V25.9531V26.7188V27.4766V28.2422V29H88.0847H87.3269V28.2422V27.4766V26.7188V25.9531V25.1953V24.4297V23.6719H86.5612V22.9062H85.8034H85.0378H84.28H83.5144V23.6719H82.7566V24.4297V25.1953V25.9531V26.7188V27.4766V28.2422V29H81.9909H81.2331ZM98.2619 29V28.2422V27.4766H99.0197H99.7853H100.543V26.7188V25.9531V25.1953V24.4297V23.6719V22.9062V22.1484V21.3828V20.625H99.7853H99.0197H98.2619V19.8594V19.1016H99.0197H99.7853H100.543V18.3359H101.309H102.067V19.1016V19.8594V20.625V21.3828V22.1484V22.9062V23.6719V24.4297V25.1953V25.9531V26.7188V27.4766H102.832H103.59H104.356V28.2422V29H103.59H102.832H102.067H101.309H100.543H99.7853H99.0197H98.2619Z" fill="#FFEBD3"/>
</g>
<defs>
<clipPath id="clip0_1837_30203">
<rect width="150" height="48" fill="white"/>
</clipPath>
</defs>
</svg>
