<svg width="178" height="35" viewBox="0 0 178 35" fill="none" xmlns="http://www.w3.org/2000/svg">
<g clip-path="url(#clip0_2088_3369)">
<path d="M6 1H7V0H415V2H6V1Z" fill="#FFEBD3"/>
<path d="M172 34L171 34L171 35L-237 35L-237 33L172 33L172 34Z" fill="#FFEBD3"/>
<path d="M177 29L177 28L178 28L178 -380L176 -380L176 29L177 29Z" fill="#FFEBD3"/>
<path d="M1 6L1 7L-4.37114e-08 7L-1.7878e-05 415L1.99998 415L2 6L1 6Z" fill="#FFEBD3"/>
<path d="M172 32H173V33H172V32Z" fill="#4BF89B"/>
<path d="M173 31H174V32H173V31Z" fill="#4BF89B"/>
<path d="M174 30H175V31H174V30Z" fill="#4BF89B"/>
<path d="M175 29H176V30H175V29Z" fill="#4BF89B"/>
<path d="M2 5H3V6H2V5Z" fill="#4BF89B"/>
<path d="M3 4H4V5H3V4Z" fill="#4BF89B"/>
<path d="M4 3H5V4H4V3Z" fill="#4BF89B"/>
<path d="M5 2H6V3H5V2Z" fill="#4BF89B"/>
<path d="M26.6 21.4766V20.7188V19.9531V19.1953V18.4297V17.6719V16.9062V16.1484V15.3828V14.625V13.8594H27.3578V13.1016H28.1234V12.3359H28.8812H29.6469H30.4047H31.1703H31.9281H32.6937H33.4516H34.2172V13.1016V13.8594H33.4516H32.6937H31.9281H31.1703H30.4047H29.6469H28.8812V14.625H28.1234V15.3828V16.1484V16.9062V17.6719V18.4297V19.1953V19.9531V20.7188H28.8812V21.4766H29.6469H30.4047H31.1703H31.9281V20.7188H32.6937V19.9531V19.1953V18.4297H31.9281H31.1703H30.4047V17.6719V16.9062H31.1703H31.9281H32.6937H33.4516H34.2172V17.6719V18.4297V19.1953V19.9531V20.7188V21.4766V22.2422V23H33.4516H32.6937H31.9281H31.1703H30.4047H29.6469H28.8812H28.1234V22.2422H27.3578V21.4766H26.6ZM36.255 21.4766V20.7188V19.9531V19.1953V18.4297V17.6719V16.9062H37.0128V16.1484H37.7784V15.3828H38.5362H39.3019H40.0597H40.8253H41.5831H42.3487V16.1484H43.1066V16.9062H43.8722V17.6719V18.4297V19.1953V19.9531V20.7188V21.4766H43.1066V22.2422H42.3487V23H41.5831H40.8253H40.0597H39.3019H38.5362H37.7784V22.2422H37.0128V21.4766H36.255ZM37.7784 20.7188H38.5362V21.4766H39.3019H40.0597H40.8253H41.5831V20.7188H42.3487V19.9531V19.1953V18.4297V17.6719H41.5831V16.9062H40.8253H40.0597H39.3019H38.5362V17.6719H37.7784V18.4297V19.1953V19.9531V20.7188ZM45.91 21.4766V20.7188V19.9531V19.1953V18.4297V17.6719V16.9062H46.6678V16.1484H47.4334V15.3828H48.1912H48.9569H49.7147H50.4803H51.2381H52.0037V16.1484H52.7616V16.9062H53.5272V17.6719V18.4297V19.1953V19.9531V20.7188V21.4766H52.7616V22.2422H52.0037V23H51.2381H50.4803H49.7147H48.9569H48.1912H47.4334V22.2422H46.6678V21.4766H45.91ZM47.4334 20.7188H48.1912V21.4766H48.9569H49.7147H50.4803H51.2381V20.7188H52.0037V19.9531V19.1953V18.4297V17.6719H51.2381V16.9062H50.4803H49.7147H48.9569H48.1912V17.6719H47.4334V18.4297V19.1953V19.9531V20.7188ZM55.565 25.2891V24.5312V23.7656H56.3228H57.0884V24.5312H57.8462H58.6119H59.3697H60.1353H60.8931V23.7656H61.6587V23V22.2422H60.8931V23H60.1353H59.3697H58.6119H57.8462H57.0884V22.2422H56.3228V21.4766H55.565V20.7188V19.9531V19.1953V18.4297V17.6719V16.9062H56.3228V16.1484H57.0884V15.3828H57.8462H58.6119H59.3697H60.1353H60.8931H61.6587H62.4166H63.1822V16.1484V16.9062V17.6719V18.4297V19.1953V19.9531V20.7188V21.4766V22.2422V23V23.7656V24.5312H62.4166V25.2891H61.6587V26.0547H60.8931H60.1353H59.3697H58.6119H57.8462H57.0884H56.3228V25.2891H55.565ZM57.0884 20.7188H57.8462V21.4766H58.6119H59.3697H60.1353H60.8931V20.7188H61.6587V19.9531V19.1953V18.4297V17.6719V16.9062H60.8931H60.1353H59.3697H58.6119H57.8462V17.6719H57.0884V18.4297V19.1953V19.9531V20.7188ZM65.22 13.8594V13.1016V12.3359H65.9778H66.7434H67.5012V13.1016V13.8594V14.625V15.3828V16.1484V16.9062V17.6719V18.4297V19.1953V19.9531V20.7188V21.4766H68.2669V22.2422V23H67.5012H66.7434H65.9778V22.2422V21.4766V20.7188V19.9531V19.1953V18.4297V17.6719V16.9062V16.1484V15.3828V14.625V13.8594H65.22ZM70.3125 21.4766V20.7188V19.9531V19.1953V18.4297V17.6719V16.9062H71.0703V16.1484H71.8359V15.3828H72.5938H73.3594H74.1172H74.8828H75.6406H76.4062V16.1484H77.1641V16.9062H77.9297V17.6719V18.4297V19.1953V19.9531H77.1641H76.4062H75.6406H74.8828H74.1172H73.3594H72.5938H71.8359V20.7188H72.5938V21.4766H73.3594H74.1172H74.8828H75.6406H76.4062V20.7188H77.1641H77.9297V21.4766V22.2422H77.1641V23H76.4062H75.6406H74.8828H74.1172H73.3594H72.5938H71.8359V22.2422H71.0703V21.4766H70.3125ZM71.8359 18.4297H72.5938H73.3594H74.1172H74.8828H75.6406H76.4062V17.6719H75.6406V16.9062H74.8828H74.1172H73.3594H72.5938V17.6719H71.8359V18.4297ZM87.3412 23V22.2422V21.4766V20.7188V19.9531V19.1953V18.4297V17.6719V16.9062V16.1484V15.3828V14.625V13.8594V13.1016V12.3359H88.0991H88.8647H89.6225V13.1016V13.8594H90.3881V14.625V15.3828H91.1459V16.1484V16.9062H91.9116H92.6694V16.1484V15.3828H93.435V14.625V13.8594H94.1928V13.1016V12.3359H94.9584H95.7162H96.4819V13.1016V13.8594V14.625V15.3828V16.1484V16.9062V17.6719V18.4297V19.1953V19.9531V20.7188V21.4766V22.2422V23H95.7162H94.9584V22.2422V21.4766V20.7188V19.9531V19.1953V18.4297V17.6719V16.9062V16.1484V15.3828H94.1928V16.1484V16.9062H93.435V17.6719V18.4297H92.6694V19.1953V19.9531H91.9116H91.1459V19.1953V18.4297H90.3881V17.6719V16.9062H89.6225V16.1484V15.3828H88.8647V16.1484V16.9062V17.6719V18.4297V19.1953V19.9531V20.7188V21.4766V22.2422V23H88.0991H87.3412ZM98.5275 21.4766V20.7188V19.9531H99.2853V19.1953H100.051V18.4297H100.809H101.574H102.332H103.098H103.856H104.621V17.6719H103.856V16.9062H103.098H102.332H101.574H100.809H100.051H99.2853V16.1484V15.3828H100.051H100.809H101.574H102.332H103.098H103.856H104.621V16.1484H105.379V16.9062H106.145V17.6719V18.4297V19.1953V19.9531V20.7188V21.4766V22.2422V23H105.379H104.621V22.2422H103.856V23H103.098H102.332H101.574H100.809H100.051V22.2422H99.2853V21.4766H98.5275ZM100.809 21.4766H101.574H102.332H103.098H103.856V20.7188H104.621V19.9531H103.856H103.098H102.332H101.574H100.809V20.7188V21.4766ZM108.182 26.0547V25.2891V24.5312V23.7656V23V22.2422V21.4766V20.7188V19.9531V19.1953V18.4297V17.6719V16.9062V16.1484V15.3828H108.94H109.706V16.1484H110.464V15.3828H111.229H111.987H112.753H113.511H114.276V16.1484H115.034V16.9062H115.8V17.6719V18.4297V19.1953V19.9531V20.7188V21.4766H115.034V22.2422H114.276V23H113.511H112.753H111.987H111.229H110.464H109.706V23.7656V24.5312V25.2891V26.0547H108.94H108.182ZM109.706 21.4766H110.464H111.229H111.987H112.753H113.511V20.7188H114.276V19.9531V19.1953V18.4297V17.6719H113.511V16.9062H112.753H111.987H111.229H110.464V17.6719H109.706V18.4297V19.1953V19.9531V20.7188V21.4766ZM117.838 22.2422V21.4766V20.7188H118.595H119.361V21.4766H120.119H120.884H121.642H122.408V20.7188V19.9531H121.642H120.884H120.119H119.361H118.595V19.1953H117.838V18.4297V17.6719V16.9062V16.1484H118.595V15.3828H119.361H120.119H120.884H121.642H122.408H123.166V16.1484H123.931V16.9062V17.6719H123.166H122.408V16.9062H121.642H120.884H120.119H119.361V17.6719V18.4297H120.119H120.884H121.642H122.408H123.166V19.1953H123.931V19.9531V20.7188V21.4766V22.2422H123.166V23H122.408H121.642H120.884H120.119H119.361H118.595V22.2422H117.838Z" fill="#FFEBD3"/>
<path d="M144.762 18.4076C145.856 18.4076 146.743 17.5209 146.743 16.4271C146.743 15.3333 145.856 14.4467 144.762 14.4467C143.669 14.4467 142.782 15.3333 142.782 16.4271C142.782 17.5209 143.669 18.4076 144.762 18.4076Z" stroke="#FFEBD3" stroke-width="1.1849"/>
<path d="M139.443 15.2719C140.694 9.77478 148.838 9.78113 150.082 15.2782C150.812 18.5028 148.806 21.2323 147.048 22.9208C145.772 24.1522 143.753 24.1522 142.471 22.9208C140.719 21.2323 138.713 18.4965 139.443 15.2719Z" stroke="#FFEBD3" stroke-width="1.1849"/>
</g>
<defs>
<clipPath id="clip0_2088_3369">
<rect width="178" height="35" fill="white"/>
</clipPath>
</defs>
</svg>
